#!OML:ASF G:\JayActor3\Patient Classification 1\Patient 1\Session 5\male.ASF
:FULLY-SPECIFIED
:DEGREES
952
root 51.1175 15.5821 -4.1867 213.205 -84.3369 -194.493
lowerback 31.7737 0.398668 -0.161142
upperback 7.37911 -0.464886 -1.34773
thorax -9.0325 -0.528667 -1.21017
lowerneck 3.90139 0.877496 1.73112
upperneck -17.6857 1.13678 0.429658
head -5.97928 0.256965 -0.208225
rclavicle 1.82882e-014 2.20651e-014
rhumerus -27.228 3.87204 -89.5379
rradius 37.0466
rwrist -3.65817
rhand -20.9489 -6.49456
rfingers 7.12502
rthumb 5.42369 -36.4052
lclavicle 1.82882e-014 2.20651e-014
lhumerus -28.6956 -7.80535 86.624
lradius 35.1237
lwrist 24.1354
lhand -20.9808 9.14049
lfingers 7.12502
lthumb 5.39291 39.0519
rfemur -58.9349 1.64146 16.6718
rtibia 88.3269
rfoot -12.2125 -4.23588
rtoes -20.8358
lfemur -48.0206 -0.232146 -26.9112
ltibia 44.4938
lfoot -13.9176 6.81421
ltoes -1.88796
953
root 51.2125 15.5935 -4.19466 213.167 -84.3706 -194.396
lowerback 31.7939 0.396695 -0.131949
upperback 7.3603 -0.457666 -1.35596
thorax -9.06366 -0.525224 -1.23937
lowerneck 3.89817 0.869811 1.73004
upperneck -17.7273 1.12505 0.430777
head -5.99194 0.25002 -0.206947
rclavicle 3.06128e-014 3.10104e-014
rhumerus -27.2621 3.90842 -89.5294
rradius 37.1259
rwrist -3.71788
rhand -20.9521 -6.51725
rfingers 7.12502
rthumb 5.42056 -36.4279
lclavicle 3.06128e-014 3.10104e-014
lhumerus -28.7083 -7.85988 86.6337
lradius 35.2505
lwrist 24.1763
lhand -20.975 9.32902
lfingers 7.12502
lthumb 5.39853 39.2403
rfemur -58.1112 1.71541 16.7121
rtibia 88.3734
rfoot -12.2528 -4.34962
rtoes -20.8133
lfemur -48.2421 -0.237971 -26.8116
ltibia 44.0924
lfoot -13.4753 6.69695
ltoes -1.52391
954
root 51.3073 15.6034 -4.20288 213.018 -84.3977 -194.198
lowerback 31.8233 0.396339 -0.0945864
upperback 7.34225 -0.446691 -1.36722
thorax -9.0982 -0.520406 -1.2782
lowerneck 3.89751 0.86436 1.73818
upperneck -17.7634 1.11689 0.427268
head -6.00318 0.244754 -0.208902
rclavicle -1.00386e-014 -3.67752e-015
rhumerus -27.2925 3.95102 -89.5261
rradius 37.1908
rwrist -3.77032
rhand -20.953 -6.53508
rfingers 7.12502
rthumb 5.41976 -36.4458
lclavicle -1.00386e-014 -3.67752e-015
lhumerus -28.728 -7.91402 86.6447
lradius 35.3717
lwrist 24.1933
lhand -20.9594 9.53695
lfingers 7.12502
lthumb 5.41354 39.4478
rfemur -57.2797 1.81709 16.7646
rtibia 88.3224
rfoot -12.3 -4.4273
rtoes -20.8742
lfemur -48.4631 -0.226819 -26.7101
ltibia 43.7106
lfoot -13.0324 6.58813
ltoes -1.21335
955
root 51.4018 15.6119 -4.21127 212.799 -84.413 -193.938
lowerback 31.8506 0.399931 -0.0568932
upperback 7.32943 -0.431508 -1.38091
thorax -9.12565 -0.51392 -1.32158
lowerneck 3.89467 0.863419 1.75209
upperneck -17.7913 1.11483 0.41845
head -6.01138 0.242724 -0.213871
rclavicle -1.95803e-014 -3.97569e-015
rhumerus -27.3127 3.99731 -89.5234
rradius 37.2416
rwrist -3.81175
rhand -20.9557 -6.5505
rfingers 7.12502
rthumb 5.41715 -36.4613
lclavicle -1.95803e-014 -3.97569e-015
lhumerus -28.7395 -7.95316 86.6581
lradius 35.4681
lwrist 24.1811
lhand -20.9404 9.7112
lfingers 7.12502
lthumb 5.43194 39.6216
rfemur -56.4484 1.94783 16.8225
rtibia 88.1751
rfoot -12.325 -4.47163
rtoes -20.9962
lfemur -48.6847 -0.204169 -26.611
ltibia 43.3447
lfoot -12.5912 6.49627
ltoes -0.939383
956
root 51.4962 15.619 -4.21986 212.599 -84.415 -193.699
lowerback 31.8684 0.40706 -0.0299649
upperback 7.321 -0.415706 -1.39633
thorax -9.1435 -0.507091 -1.36089
lowerneck 3.88747 0.866278 1.76857
upperneck -17.8101 1.11708 0.402047
head -6.01585 0.243444 -0.221915
rclavicle -1.68967e-014 -2.48481e-014
rhumerus -27.321 4.04786 -89.5189
rradius 37.2779
rwrist -3.83643
rhand -20.9581 -6.55896
rfingers 7.12502
rthumb 5.41478 -36.4698
lclavicle -1.68967e-014 -2.48481e-014
lhumerus -28.7457 -7.97639 86.674
lradius 35.5444
lwrist 24.1497
lhand -20.9176 9.85236
lfingers 7.12502
lthumb 5.45386 39.7622
rfemur -55.6287 2.10158 16.8785
rtibia 87.934
rfoot -12.2992 -4.49998
rtoes -20.9019
lfemur -48.9099 -0.179125 -26.5204
ltibia 42.9898
lfoot -12.143 6.42711
ltoes -0.729671
957
root 51.5906 15.6247 -4.22865 212.437 -84.4043 -193.501
lowerback 31.874 0.417718 -0.0171075
upperback 7.31844 -0.400254 -1.41228
thorax -9.14883 -0.500301 -1.39245
lowerneck 3.8705 0.872729 1.77415
upperneck -17.8138 1.12427 0.392353
head -6.01394 0.247139 -0.226282
rclavicle 8.94531e-015 -2.18663e-015
rhumerus -27.3168 4.101 -89.5103
rradius 37.3052
rwrist -3.84953
rhand -20.9603 -6.56621
rfingers 7.12502
rthumb 5.41269 -36.4771
lclavicle 8.94531e-015 -2.18663e-015
lhumerus -28.7452 -7.98206 86.6925
lradius 35.5967
lwrist 24.1114
lhand -20.8914 9.94908
lfingers 7.12502
lthumb 5.47923 39.8582
rfemur -54.8226 2.27434 16.9316
rtibia 87.6015
rfoot -12.2092 -4.5246
rtoes -20.7876
lfemur -49.137 -0.155544 -26.4391
ltibia 42.6421
lfoot -11.6919 6.38306
ltoes -0.559914
